<svg width="48" height="52" viewBox="0 0 48 52" fill="none" xmlns="http://www.w3.org/2000/svg">
<g id="Vector" filter="url(#filter0_d_27_105)">
<path d="M39 21.6308C39 9.68154 30.2722 0 19.5 0C8.72782 0 0 9.68154 0 21.6308C0 32.4271 7.13087 41.3759 16.4531 43V27.8837H11.4995V21.6308H16.4531V16.8651C16.4531 11.4443 19.3624 8.44998 23.8183 8.44998C25.9523 8.44998 28.1838 8.87213 28.1838 8.87213V14.1926H25.7243C23.3025 14.1926 22.5469 15.8603 22.5469 17.5707V21.6308H27.955L27.0901 27.8837H22.5469V43C31.8691 41.3759 39 32.4271 39 21.6308Z" fill="white"/>
</g>
<defs>
<filter id="filter0_d_27_105" x="0" y="0" width="48" height="52" filterUnits="userSpaceOnUse" color-interpolation-filters="sRGB">
<feFlood flood-opacity="0" result="BackgroundImageFix"/>
<feColorMatrix in="SourceAlpha" type="matrix" values="0 0 0 0 0 0 0 0 0 0 0 0 0 0 0 0 0 0 127 0" result="hardAlpha"/>
<feOffset dx="5" dy="5"/>
<feGaussianBlur stdDeviation="2"/>
<feComposite in2="hardAlpha" operator="out"/>
<feColorMatrix type="matrix" values="0 0 0 0 0 0 0 0 0 0 0 0 0 0 0 0 0 0 0.31 0"/>
<feBlend mode="normal" in2="BackgroundImageFix" result="effect1_dropShadow_27_105"/>
<feBlend mode="normal" in="SourceGraphic" in2="effect1_dropShadow_27_105" result="shape"/>
</filter>
</defs>
</svg>
