<svg width="47" height="51" viewBox="0 0 47 51" fill="none" xmlns="http://www.w3.org/2000/svg">
<g id="Vector" filter="url(#filter0_d_27_107)">
<path d="M19.0042 10.2317C13.6126 10.2317 9.26369 15.0395 9.26369 21C9.26369 26.9605 13.6126 31.7683 19.0042 31.7683C24.3959 31.7683 28.7448 26.9605 28.7448 21C28.7448 15.0395 24.3959 10.2317 19.0042 10.2317ZM19.0042 28.0008C15.52 28.0008 12.6716 24.8612 12.6716 21C12.6716 17.1388 15.5115 13.9992 19.0042 13.9992C22.4969 13.9992 25.3369 17.1388 25.3369 21C25.3369 24.8612 22.4885 28.0008 19.0042 28.0008ZM31.4152 9.79125C31.4152 11.1877 30.3979 12.3029 29.1432 12.3029C27.8801 12.3029 26.8713 11.1783 26.8713 9.79125C26.8713 8.40422 27.8886 7.27959 29.1432 7.27959C30.3979 7.27959 31.4152 8.40422 31.4152 9.79125ZM37.8665 12.3404C37.7224 8.9759 37.0272 5.99565 34.7977 3.54022C32.5766 1.08479 29.8808 0.3163 26.8374 0.147607C23.7007 -0.0492023 14.2993 -0.0492023 11.1626 0.147607C8.12772 0.306928 5.4319 1.07542 3.20234 3.53085C0.972783 5.98628 0.286113 8.96653 0.133519 12.331C-0.0445064 15.7986 -0.0445064 26.192 0.133519 29.6596C0.277635 33.0241 0.972783 36.0044 3.20234 38.4598C5.4319 40.9152 8.11924 41.6837 11.1626 41.8524C14.2993 42.0492 23.7007 42.0492 26.8374 41.8524C29.8808 41.6931 32.5766 40.9246 34.7977 38.4598C37.0187 36.0044 37.7139 33.0241 37.8665 29.6596C38.0445 26.192 38.0445 15.808 37.8665 12.3404ZM33.8143 33.3802C33.153 35.2171 31.873 36.6323 30.2029 37.3726C27.7021 38.4692 21.7679 38.2161 19.0042 38.2161C16.2406 38.2161 10.2979 38.4598 7.80558 37.3726C6.144 36.6416 4.86392 35.2265 4.1942 33.3802C3.20234 30.6155 3.43123 24.0552 3.43123 21C3.43123 17.9448 3.21082 11.3751 4.1942 8.61977C4.85544 6.78289 6.13553 5.36773 7.80558 4.62736C10.3064 3.53085 16.2406 3.78389 19.0042 3.78389C21.7679 3.78389 27.7105 3.54022 30.2029 4.62736C31.8645 5.35836 33.1446 6.77351 33.8143 8.61977C34.8061 11.3845 34.5772 17.9448 34.5772 21C34.5772 24.0552 34.8061 30.6249 33.8143 33.3802Z" fill="white"/>
</g>
<defs>
<filter id="filter0_d_27_107" x="0" y="0" width="47" height="51" filterUnits="userSpaceOnUse" color-interpolation-filters="sRGB">
<feFlood flood-opacity="0" result="BackgroundImageFix"/>
<feColorMatrix in="SourceAlpha" type="matrix" values="0 0 0 0 0 0 0 0 0 0 0 0 0 0 0 0 0 0 127 0" result="hardAlpha"/>
<feOffset dx="5" dy="5"/>
<feGaussianBlur stdDeviation="2"/>
<feComposite in2="hardAlpha" operator="out"/>
<feColorMatrix type="matrix" values="0 0 0 0 0 0 0 0 0 0 0 0 0 0 0 0 0 0 0.31 0"/>
<feBlend mode="normal" in2="BackgroundImageFix" result="effect1_dropShadow_27_107"/>
<feBlend mode="normal" in="SourceGraphic" in2="effect1_dropShadow_27_107" result="shape"/>
</filter>
</defs>
</svg>
